:SAMPLES-PER-SECOND 30
:FULLY-SPECIFIED
:DEGREES
140
root  -3.73746 40.6135 3.37026 138.944 -81.0954 -143.353
RightUpLeg  -0.336737 -11.1906 -2.24543
RightLeg  14.6165 -7.0553 -2.14232
RightFoot  1.07079 -1.44779 13.3259
RightToes  -3.1126e-008 1.75238e-005 3.56266e-009
Spine  0.805002 -1.59612 -19.9981
Spine1  4.41115 -3.95318 10.556
HEad  -26.0212 -41.863 23.2823
LeftShoulder1  1.24044 -3.57278 -10.2365
LeftArm  10.9684 -50.8601 -84.8731
LeftForeArm  -14.9632 -61.0438 -22.3355
LeftHand  -0.247061 2.34691 8.98629
RightShoulder  0.543067 0.511777 5.80258
RightArm  -69.4107 -7.35637 0.706934
RightForeArm  -22.069 47.9327 13.8539
RightHand  -0.55293 2.47665 -8.36862
LeftUpLeg  6.89472 3.67156 2.14562
LeftLeg  5.7406 17.6129 1.17601
LeftFoot  -7.58539 -0.0200132 2.00441
LeftToes  4.78349e-008 1.46828e-008 1.33736e-009
141
root  -3.74054 40.5327 3.50104 147.499 -79.2235 -152.651
RightUpLeg  -0.0115369 -10.1522 -2.67086
RightLeg  14.781 -6.02865 -1.93272
RightFoot  0.254581 -1.30388 12.8054
RightToes  -3.1126e-008 1.75238e-005 3.56266e-009
Spine  0.159373 -0.927558 -18.7952
Spine1  5.92311 -3.20713 9.64728
HEad  -27.0425 -40.4294 22.3634
LeftShoulder1  1.09315 -2.83242 -9.93316
LeftArm  8.82579 -51.089 -82.5307
LeftForeArm  -14.0895 -61.715 -22.952
LeftHand  -0.25165 2.02141 8.70683
RightShoulder  0.564298 0.706153 5.66205
RightArm  -69.282 -6.51837 0.936535
RightForeArm  -22.8509 48.5726 14.2046
RightHand  -0.597393 2.64685 -8.81058
LeftUpLeg  7.719 3.86284 1.60633
LeftLeg  6.0978 19.9067 1.2179
LeftFoot  -8.06962 -0.00980775 2.04326
LeftToes  4.78349e-008 1.46828e-008 1.33736e-009
142
root  -3.76576 40.4932 3.63585 152.809 -77.3216 -158.311
RightUpLeg  0.0979456 -9.59077 -3.01406
RightLeg  14.577 -4.88029 -1.54249
RightFoot  -0.236962 -1.17798 12.0632
RightToes  -3.1126e-008 1.75238e-005 3.56266e-009
Spine  -1.35928 -0.724193 -17.4583
Spine1  8.09208 -2.80934 8.73409
HEad  -27.4157 -38.6677 21.3786
LeftShoulder1  1.07359 -2.686 -10.0229
LeftArm  4.91657 -50.5228 -78.0498
LeftForeArm  -11.5103 -62.7948 -23.9262
LeftHand  -0.259245 1.91865 8.48492
RightShoulder  0.579189 0.866217 5.48846
RightArm  -68.6267 -5.03878 1.61569
RightForeArm  -22.9558 49.99 14.932
RightHand  -0.756031 2.98513 -10.6964
LeftUpLeg  8.32317 3.75697 1.00077
LeftLeg  5.95732 22.3129 1.30863
LeftFoot  -8.20968 -0.0057761 2.01777
LeftToes  4.78349e-008 1.46828e-008 1.33736e-009
143
root  -3.82576 40.4956 3.74514 154.195 -75.7702 -159.697
RightUpLeg  0.464891 -9.56847 -2.95545
RightLeg  13.5363 -3.96665 -0.993391
RightFoot  -0.195283 -1.16275 11.8647
RightToes  -3.1126e-008 1.75238e-005 3.56266e-009
Spine  -2.69373 -0.652203 -15.7258
Spine1  9.52293 -2.54089 7.8899
HEad  -27.3865 -37.6111 20.2108
LeftShoulder1  1.21679 -3.28995 -10.6684
LeftArm  0.475351 -48.2881 -72.6115
LeftForeArm  -7.03997 -64.5841 -25.6868
LeftHand  -0.263693 1.95868 8.76252
RightShoulder  0.582537 0.79746 5.81661
RightArm  -67.225 -3.97733 2.08546
RightForeArm  -21.3819 52.6341 16.3169
RightHand  -0.791295 2.8669 -11.3164
LeftUpLeg  8.57855 3.68448 0.90385
LeftLeg  5.8301 23.9008 1.51818
LeftFoot  -8.28013 -0.00111044 1.90674
LeftToes  4.78349e-008 1.46828e-008 1.33736e-009
144
root  -3.87963 40.5219 3.83421 154.73 -74.5443 -160.08
RightUpLeg  0.809687 -9.09503 -2.78513
RightLeg  12.3349 -3.54947 -0.487338
RightFoot  0.184396 -1.186 11.724
RightToes  -3.1126e-008 1.75238e-005 3.56266e-009
Spine  -3.96155 -0.956904 -14.1855
Spine1  10.8789 -2.72144 7.24553
HEad  -26.878 -36.422 18.871
LeftShoulder1  1.2971 -3.4837 -11.382
LeftArm  -4.50595 -44.2007 -67.3689
LeftForeArm  0.771992 -66.5971 -27.7445
LeftHand  -0.285591 0.980471 7.44218
RightShoulder  0.604027 0.888552 6.05659
RightArm  -66.3731 -2.91237 3.85399
RightForeArm  -17.2881 56.36 18.5305
RightHand  -0.677699 2.67454 -9.9528
LeftUpLeg  8.75055 3.69104 0.995653
LeftLeg  5.45668 25.0451 1.53006
LeftFoot  -8.18583 0.000661523 1.76355
LeftToes  4.78349e-008 1.46828e-008 1.33736e-009
145
root  -3.90527 40.5475 3.8886 155.277 -73.6845 -160.29
RightUpLeg  0.984154 -8.18134 -2.65618
RightLeg  11.1636 -3.28307 -0.0358639
RightFoot  0.340987 -1.24857 12.1872
RightToes  -3.1126e-008 1.75238e-005 3.56266e-009
Spine  -4.37855 -1.4403 -13.0277
Spine1  10.9808 -3.09984 6.68485
HEad  -25.5437 -35.0908 17.1704
LeftShoulder1  1.44589 -3.89705 -12.4675
LeftArm  -9.01151 -38.0233 -61.2122
LeftForeArm  11.7712 -69.1033 -30.6366
LeftHand  -0.335589 -0.517032 6.76702
RightShoulder  0.647866 0.929952 7.01679
RightArm  -64.295 -2.33022 6.10844
RightForeArm  -10.0608 61.3353 22.2368
RightHand  -0.629152 2.98393 -8.94723
LeftUpLeg  8.55372 3.69198 1.07964
LeftLeg  5.30234 25.8609 1.53866
LeftFoot  -8.10987 0.00194653 1.66151
LeftToes  4.78349e-008 1.46828e-008 1.33736e-009
146
root  -3.92701 40.5545 3.90484 156.629 -72.8015 -161.407
RightUpLeg  1.17122 -6.19751 -2.54053
RightLeg  10.1734 -3.19271 0.10517
RightFoot  0.0243779 -1.28963 12.9121
RightToes  -3.1126e-008 1.75238e-005 3.56266e-009
Spine  -4.66596 -1.8874 -12.0774
Spine1  11.1369 -3.38183 5.84452
HEad  -24.569 -33.4618 15.9466
LeftShoulder1  1.5244 -3.85895 -13.7662
LeftArm  -12.5084 -30.771 -55.9869
LeftForeArm  25.0976 -71.1635 -32.9133
LeftHand  -0.373363 -3.07166 5.35022
RightShoulder  0.724889 1.16085 8.08072
RightArm  -61.1937 -3.06399 9.29247
RightForeArm  0.0380643 66.9728 28.5249
RightHand  -0.694628 4.05827 -8.78413
LeftUpLeg  8.55905 3.58243 0.901031
LeftLeg  4.90237 26.93 1.48246
LeftFoot  -7.95159 0.00260189 1.52825
LeftToes  4.78349e-008 1.46828e-008 1.33736e-009
147
root  -3.9244 40.5515 3.88484 158.303 -71.924 -162.779
RightUpLeg  1.09617 -4.5312 -2.41939
RightLeg  9.42918 -2.59484 0.17007
RightFoot  -0.386685 -1.25934 13.0474
RightToes  -3.1126e-008 1.75238e-005 3.56266e-009
Spine  -4.67987 -2.0499 -11.5564
Spine1  11.0693 -3.45665 5.41968
HEad  -24.1698 -31.7493 15.3895
LeftShoulder1  1.57001 -3.60928 -15.2279
LeftArm  -14.7872 -22.6265 -52.029
LeftForeArm  36.6708 -72.804 -34.8788
LeftHand  -0.356811 -4.46861 4.45844
RightShoulder  0.761529 1.11705 9.13356
RightArm  -57.7103 -5.14783 13.4718
RightForeArm  14.9724 73.0535 41.0622
RightHand  -0.703209 4.43071 -8.58355
LeftUpLeg  8.42724 3.50815 0.705995
LeftLeg  4.54928 27.9738 1.34676
LeftFoot  -7.82326 0.000907648 1.5031
LeftToes  4.78349e-008 1.46828e-008 1.33736e-009
148
root  -3.92196 40.5311 3.8381 159.921 -71.0805 -164.252
RightUpLeg  1.16436 -3.2435 -2.30807
RightLeg  8.83265 -1.98426 0.134294
RightFoot  -0.933182 -1.12549 12.245
RightToes  -3.1126e-008 1.75238e-005 3.56266e-009
Spine  -5.1648 -2.05474 -11.2824
Spine1  12.288 -3.42837 5.06517
HEad  -24.8583 -30.5917 15.6725
LeftShoulder1  1.81851 -3.95 -17.7917
LeftArm  -15.8848 -14.5492 -47.5939
LeftForeArm  42.5068 -73.0827 -34.2545
LeftHand  -0.459192 -4.90124 5.5051
RightShoulder  0.875421 1.23695 11.3453
RightArm  -53.8035 -8.28865 17.2571
RightForeArm  41.2262 77.7189 65.3081
RightHand  -0.729092 4.86502 -8.50527
LeftUpLeg  8.28521 3.45926 0.457424
LeftLeg  4.61041 28.998 1.42519
LeftFoot  -7.84402 0.00513309 1.37732
LeftToes  4.78349e-008 1.46828e-008 1.33736e-009
149
root  -3.89701 40.5162 3.7785 161.585 -70.2444 -165.802
RightUpLeg  1.02415 -2.45999 -2.23754
RightLeg  8.50487 -2.0109 0.003199
RightFoot  -1.32265 -1.03716 11.6924
RightToes  -3.1126e-008 1.75238e-005 3.56266e-009
Spine  -5.92801 -1.93141 -10.8938
Spine1  14.4012 -3.20375 4.49807
HEad  -26.382 -29.1493 16.8155
LeftShoulder1  1.93874 -3.8158 -20.0415
LeftArm  -16.1226 -7.30053 -44.8423
LeftForeArm  39.8618 -70.563 -28.6894
LeftHand  -0.559669 -3.29041 7.72997
RightShoulder  1.05427 1.53449 14.0863
RightArm  -49.5438 -12.6171 21.701
RightForeArm  76.8581 78.8511 98.2374
RightHand  -0.927504 5.6671 -10.0379
LeftUpLeg  8.13338 3.3231 0.133783
LeftLeg  4.66488 30.0981 1.53314
LeftFoot  -7.8436 0.00982593 1.2242
LeftToes  4.78349e-008 1.46828e-008 1.33736e-009
